# xmcd CD database file
#
# Track frame offsets:
#	180
#	15464
#	27829
#	41750
#	56574
#	67717
#	82370
#	96450
#	117880
#	130264
#	148600
#	165793
#	208916
#	226343
#
# Disc length: 3231 seconds
#
# Revision: 0
# Processed by: cddbd v1.5.1PL0 Copyright (c) Steve Scherf et al.
# Submitted via: CDex 1.51
#
DISCID=bb0c9d0e
DTITLE=Blues Broers - Cellar Tapes
DYEAR=1998
DGENRE=Blues
TTITLE0=I'd Rather Be Sad Than Happily Married
TTITLE1=Life's A Melodrama
TTITLE2=Hate To See You Go
TTITLE3=Solo
TTITLE4=What Went Wrong
TTITLE5=Double trouble
TTITLE6=Josie
TTITLE7=Baby Done Gone
TTITLE8=Automobile
TTITLE9=Empty bars
TTITLE10=Dragonfly
TTITLE11=Dolly Mae
TTITLE12=Glove
TTITLE13=Black Eye Snake
EXTD=YEAR: 1998
EXTT0=
EXTT1=
EXTT2=
EXTT3=
EXTT4=
EXTT5=
EXTT6=
EXTT7=
EXTT8=
EXTT9=
EXTT10=
EXTT11=
EXTT12=
EXTT13=
PLAYORDER=
